# xmcd
#
# Track frame offsets:
#	150
#	17164
#	38385
#	62260
#	79392
#	94956
#	113877
#	138757
#	161487
#	184950
#	203499
#	232869
#	243247
#	261490
#
# Disc length: 3715 seconds
#
# Revision: 0
# Processed by: cddbd v1.5.2PL0 Copyright (c) Steve Scherf et al.
# Submitted via: EasyCDDAExtractor 8.2.3.1
#
DISCID=ad0e810e
DTITLE=Dave Hole - Short Fuse Blues
DYEAR=1992
DGENRE=Blues
TTITLE0=Keep Your Motor Running
TTITLE1=The Bottle
TTITLE2=Short Fuse Blues
TTITLE3=Every Girl I See
TTITLE4=Something Fine
TTITLE5=Albatross
TTITLE6=Night Cat
TTITLE7=Tore Down
TTITLE8=The Sun Is Shining
TTITLE9=Business Man
TTITLE10=Take A Swing
TTITLE11=Dark Was The Night
TTITLE12=Truckload Of Lovin'
TTITLE13=Purple Haze
EXTD=
EXTT0=
EXTT1=
EXTT2=
EXTT3=
EXTT4=
EXTT5=
EXTT6=
EXTT7=
EXTT8=
EXTT9=
EXTT10=
EXTT11=
EXTT12=
EXTT13=
PLAYORDER=
